<svg width="12" height="9" viewBox="0 0 12 9" fill="none" xmlns="http://www.w3.org/2000/svg">
<path d="M6 0C4.70479 0.000766159 3.4398 0.391394 2.36967 1.12104C1.29955 1.85069 0.473832 2.88557 0 4.091C0.473026 5.29703 1.29852 6.33252 2.36882 7.06241C3.43911 7.7923 4.70452 8.1827 6 8.1827C7.29548 8.1827 8.56089 7.7923 9.63118 7.06241C10.7015 6.33252 11.527 5.29703 12 4.091C11.5262 2.88557 10.7005 1.85069 9.63033 1.12104C8.5602 0.391394 7.29521 0.000766159 6 0ZM6 6.818C5.46065 6.818 4.93341 6.65806 4.48496 6.35842C4.03651 6.05877 3.68698 5.63287 3.48058 5.13458C3.27418 4.63628 3.22018 4.08797 3.3254 3.55899C3.43062 3.03 3.69034 2.5441 4.07172 2.16272C4.4531 1.78134 4.939 1.52162 5.46799 1.4164C5.99697 1.31118 6.54528 1.36518 7.04358 1.57158C7.54187 1.77798 7.96777 2.12751 8.26742 2.57596C8.56706 3.02441 8.727 3.55165 8.727 4.091C8.72674 4.81416 8.43934 5.50763 7.92799 6.01899C7.41663 6.53034 6.72316 6.81773 6 6.818ZM6 2.455C5.67643 2.455 5.36013 2.55095 5.09109 2.73072C4.82205 2.91048 4.61236 3.16599 4.48853 3.46493C4.36471 3.76387 4.33231 4.09281 4.39544 4.41017C4.45856 4.72752 4.61437 5.01903 4.84317 5.24783C5.07197 5.47663 5.36348 5.63244 5.68083 5.69556C5.99819 5.75869 6.32713 5.72629 6.62607 5.60247C6.92501 5.47864 7.18052 5.26895 7.36028 4.99991C7.54005 4.73087 7.636 4.41457 7.636 4.091C7.63626 3.87608 7.59413 3.66323 7.512 3.46462C7.42988 3.26601 7.30938 3.08556 7.15741 2.93359C7.00544 2.78162 6.82499 2.66112 6.62638 2.579C6.42777 2.49687 6.21492 2.45474 6 2.455Z" fill="#01065B"/>
</svg>
