<svg width="16" height="13" viewBox="0 0 16 13" fill="none" xmlns="http://www.w3.org/2000/svg">
<path d="M14.4 0H1.6C1.17704 0.00211482 0.772127 0.171619 0.473797 0.471448C0.175467 0.771278 0.00799461 1.17704 0.0079999 1.6L0 11.2C0 11.6243 0.168571 12.0313 0.468629 12.3314C0.768687 12.6314 1.17565 12.8 1.6 12.8H14.4C14.8243 12.8 15.2313 12.6314 15.5314 12.3314C15.8314 12.0313 16 11.6243 16 11.2V1.6C16 1.17565 15.8314 0.768688 15.5314 0.468629C15.2313 0.168571 14.8243 0 14.4 0ZM14.4 3.2L8 7.2L1.6 3.2V1.6L8 5.6L14.4 1.6V3.2Z" fill="white"/>
</svg>
