<svg width="82" height="13" viewBox="0 0 82 13" fill="none" xmlns="http://www.w3.org/2000/svg">
<path d="M8.07 7.665H5.46V10.215H3.525V7.665H0.93V5.835H3.525V3.285H5.46V5.835H8.07V7.665ZM19.5575 12.18C18.4675 12.18 17.4825 11.945 16.6025 11.475C15.7325 11.005 15.0475 10.36 14.5475 9.54C14.0575 8.71 13.8125 7.78 13.8125 6.75C13.8125 5.72 14.0575 4.795 14.5475 3.975C15.0475 3.145 15.7325 2.495 16.6025 2.025C17.4825 1.555 18.4675 1.32 19.5575 1.32C20.6475 1.32 21.6275 1.555 22.4975 2.025C23.3675 2.495 24.0525 3.145 24.5525 3.975C25.0525 4.795 25.3025 5.72 25.3025 6.75C25.3025 7.78 25.0525 8.71 24.5525 9.54C24.0525 10.36 23.3675 11.005 22.4975 11.475C21.6275 11.945 20.6475 12.18 19.5575 12.18ZM19.5575 10.11C20.1775 10.11 20.7375 9.97 21.2375 9.69C21.7375 9.4 22.1275 9 22.4075 8.49C22.6975 7.98 22.8425 7.4 22.8425 6.75C22.8425 6.1 22.6975 5.52 22.4075 5.01C22.1275 4.5 21.7375 4.105 21.2375 3.825C20.7375 3.535 20.1775 3.39 19.5575 3.39C18.9375 3.39 18.3775 3.535 17.8775 3.825C17.3775 4.105 16.9825 4.5 16.6925 5.01C16.4125 5.52 16.2725 6.1 16.2725 6.75C16.2725 7.4 16.4125 7.98 16.6925 8.49C16.9825 9 17.3775 9.4 17.8775 9.69C18.3775 9.97 18.9375 10.11 19.5575 10.11ZM31.8688 3.81C32.8688 3.81 33.6738 4.11 34.2838 4.71C34.9038 5.31 35.2138 6.2 35.2138 7.38V12H32.8738V7.74C32.8738 7.1 32.7338 6.625 32.4538 6.315C32.1738 5.995 31.7688 5.835 31.2388 5.835C30.6488 5.835 30.1788 6.02 29.8288 6.39C29.4788 6.75 29.3038 7.29 29.3038 8.01V12H26.9638V3.93H29.1988V4.875C29.5088 4.535 29.8938 4.275 30.3538 4.095C30.8138 3.905 31.3188 3.81 31.8688 3.81ZM42.1049 3.81C42.8549 3.81 43.5349 3.985 44.1449 4.335C44.7649 4.675 45.2499 5.16 45.5999 5.79C45.9499 6.41 46.1249 7.135 46.1249 7.965C46.1249 8.795 45.9499 9.525 45.5999 10.155C45.2499 10.775 44.7649 11.26 44.1449 11.61C43.5349 11.95 42.8549 12.12 42.1049 12.12C40.9949 12.12 40.1499 11.77 39.5699 11.07V12H37.3349V0.869999H39.6749V4.785C40.2649 4.135 41.0749 3.81 42.1049 3.81ZM41.6999 10.2C42.2999 10.2 42.7899 10 43.1699 9.6C43.5599 9.19 43.7549 8.645 43.7549 7.965C43.7549 7.285 43.5599 6.745 43.1699 6.345C42.7899 5.935 42.2999 5.73 41.6999 5.73C41.0999 5.73 40.6049 5.935 40.2149 6.345C39.8349 6.745 39.6449 7.285 39.6449 7.965C39.6449 8.645 39.8349 9.19 40.2149 9.6C40.6049 10 41.0999 10.2 41.6999 10.2ZM51.5313 12.12C50.6813 12.12 49.9163 11.945 49.2363 11.595C48.5663 11.235 48.0413 10.74 47.6613 10.11C47.2813 9.48 47.0913 8.765 47.0913 7.965C47.0913 7.165 47.2813 6.45 47.6613 5.82C48.0413 5.19 48.5663 4.7 49.2363 4.35C49.9163 3.99 50.6813 3.81 51.5313 3.81C52.3813 3.81 53.1413 3.99 53.8113 4.35C54.4813 4.7 55.0063 5.19 55.3863 5.82C55.7663 6.45 55.9563 7.165 55.9563 7.965C55.9563 8.765 55.7663 9.48 55.3863 10.11C55.0063 10.74 54.4813 11.235 53.8113 11.595C53.1413 11.945 52.3813 12.12 51.5313 12.12ZM51.5313 10.2C52.1313 10.2 52.6213 10 53.0013 9.6C53.3913 9.19 53.5863 8.645 53.5863 7.965C53.5863 7.285 53.3913 6.745 53.0013 6.345C52.6213 5.935 52.1313 5.73 51.5313 5.73C50.9313 5.73 50.4363 5.935 50.0463 6.345C49.6563 6.745 49.4613 7.285 49.4613 7.965C49.4613 8.645 49.6563 9.19 50.0463 9.6C50.4363 10 50.9313 10.2 51.5313 10.2ZM60.6436 3.81C61.8936 3.81 62.8536 4.11 63.5236 4.71C64.1936 5.3 64.5286 6.195 64.5286 7.395V12H62.3386V10.995C61.8986 11.745 61.0786 12.12 59.8786 12.12C59.2586 12.12 58.7186 12.015 58.2586 11.805C57.8086 11.595 57.4636 11.305 57.2236 10.935C56.9836 10.565 56.8636 10.145 56.8636 9.675C56.8636 8.925 57.1436 8.335 57.7036 7.905C58.2736 7.475 59.1486 7.26 60.3286 7.26H62.1886C62.1886 6.75 62.0336 6.36 61.7236 6.09C61.4136 5.81 60.9486 5.67 60.3286 5.67C59.8986 5.67 59.4736 5.74 59.0536 5.88C58.6436 6.01 58.2936 6.19 58.0036 6.42L57.1636 4.785C57.6036 4.475 58.1286 4.235 58.7386 4.065C59.3586 3.895 59.9936 3.81 60.6436 3.81ZM60.4636 10.545C60.8636 10.545 61.2186 10.455 61.5286 10.275C61.8386 10.085 62.0586 9.81 62.1886 9.45V8.625H60.5836C59.6236 8.625 59.1436 8.94 59.1436 9.57C59.1436 9.87 59.2586 10.11 59.4886 10.29C59.7286 10.46 60.0536 10.545 60.4636 10.545ZM68.8814 4.995C69.1614 4.605 69.5364 4.31 70.0064 4.11C70.4864 3.91 71.0364 3.81 71.6564 3.81V5.97C71.3964 5.95 71.2214 5.94 71.1314 5.94C70.4614 5.94 69.9364 6.13 69.5564 6.51C69.1764 6.88 68.9864 7.44 68.9864 8.19V12H66.6464V3.93H68.8814V4.995ZM81.1945 0.869999V12H78.9595V11.07C78.3795 11.77 77.5395 12.12 76.4395 12.12C75.6795 12.12 74.9895 11.95 74.3695 11.61C73.7595 11.27 73.2795 10.785 72.9295 10.155C72.5795 9.525 72.4045 8.795 72.4045 7.965C72.4045 7.135 72.5795 6.405 72.9295 5.775C73.2795 5.145 73.7595 4.66 74.3695 4.32C74.9895 3.98 75.6795 3.81 76.4395 3.81C77.4695 3.81 78.2745 4.135 78.8545 4.785V0.869999H81.1945ZM76.8445 10.2C77.4345 10.2 77.9245 10 78.3145 9.6C78.7045 9.19 78.8995 8.645 78.8995 7.965C78.8995 7.285 78.7045 6.745 78.3145 6.345C77.9245 5.935 77.4345 5.73 76.8445 5.73C76.2445 5.73 75.7495 5.935 75.3595 6.345C74.9695 6.745 74.7745 7.285 74.7745 7.965C74.7745 8.645 74.9695 9.19 75.3595 9.6C75.7495 10 76.2445 10.2 76.8445 10.2Z" fill="white"/>
</svg>
