<svg width="16" height="16" viewBox="0 0 16 16" fill="none" xmlns="http://www.w3.org/2000/svg">
<path d="M13.01 11.755H12.22L11.94 11.485C13.0366 10.2074 13.5955 8.55466 13.4995 6.87372C13.4034 5.19278 12.6598 3.61444 11.4249 2.47005C10.1899 1.32566 8.55957 0.704254 6.8762 0.736287C5.19282 0.76832 3.58733 1.4513 2.39679 2.64184C1.20625 3.83238 0.523264 5.43788 0.491231 7.12125C0.459198 8.80463 1.08061 10.4349 2.22499 11.6699C3.36938 12.9049 4.94773 13.6485 6.62866 13.7445C8.3096 13.8406 9.96238 13.2816 11.24 12.185L11.51 12.465V13.255L14.022 15.599L15.51 14.109L13.01 11.755ZM7.00999 11.755C6.11998 11.755 5.24995 11.4911 4.50993 10.9967C3.76991 10.5022 3.19313 9.79939 2.85254 8.97712C2.51194 8.15486 2.42283 7.25006 2.59646 6.37714C2.77009 5.50423 3.19868 4.7024 3.82801 4.07307C4.45735 3.44373 5.25917 3.01515 6.13209 2.84152C7.005 2.66788 7.9098 2.757 8.73207 3.09759C9.55434 3.43819 10.2571 4.01496 10.7516 4.75498C11.2461 5.495 11.51 6.36503 11.51 7.25505C11.5108 7.84622 11.3949 8.43174 11.1691 8.97806C10.9432 9.52438 10.6118 10.0208 10.1937 10.4388C9.77571 10.8568 9.27932 11.1882 8.733 11.4141C8.18668 11.64 7.60116 11.7558 7.00999 11.755Z" fill="white"/>
</svg>
